<svg xmlns="http://www.w3.org/2000/svg" viewBox="0 0 50 50"><g id="Layer_2" data-name="Layer 2"><g id="Layer_1-2" data-name="Layer 1"><g id="ASM_Hollow" data-name="ASM Hollow"><polygon points="14.35 38.23 17.6 38.23 15.98 32.24 14.35 38.23"/><path d="M30.72,0V.27a5.74,5.74,0,0,1-11.47,0V0H0V50H50V0ZM19,43.29l-.77-2.83H13.75L13,43.29h-2.5l4.6-15h1.8l4.59,15ZM31,39.4a4.15,4.15,0,0,1-.55,2.2A3.53,3.53,0,0,1,28.9,43a6.13,6.13,0,0,1-2.52.47,6,6,0,0,1-2.19-.37A3.92,3.92,0,0,1,22.63,42a4.22,4.22,0,0,1-.88-1.8l2.24-1a2.87,2.87,0,0,0,.92,1.47,2.43,2.43,0,0,0,1.56.49,2.6,2.6,0,0,0,1.62-.45,1.56,1.56,0,0,0,.58-1.3v-.66a1.48,1.48,0,0,0-.31-1,1.9,1.9,0,0,0-.81-.59,13.43,13.43,0,0,0-1.33-.45l0,0,0,0-.12,0a11.5,11.5,0,0,1-2-.72,3.37,3.37,0,0,1-1.33-1.2,3.81,3.81,0,0,1-.55-2.18v-.42A4.23,4.23,0,0,1,22.66,30a3.39,3.39,0,0,1,1.56-1.38,5.67,5.67,0,0,1,2.45-.47,4.85,4.85,0,0,1,1.93.35A3.48,3.48,0,0,1,30,29.5a4.58,4.58,0,0,1,.84,1.73l-2.14,1a3,3,0,0,0-.84-1.37,1.88,1.88,0,0,0-1.26-.47,2.52,2.52,0,0,0-1.58.44,1.47,1.47,0,0,0-.55,1.23v.47a1.53,1.53,0,0,0,.33,1,2.33,2.33,0,0,0,.83.61,14.26,14.26,0,0,0,1.38.47l.11,0,.1.05h.09l.09,0a10.76,10.76,0,0,1,1.88.75,3.47,3.47,0,0,1,1.25,1.17A3.79,3.79,0,0,1,31,38.73Zm13.53,3.89H42.38V33.18l-2.69,7.89H38.05l-2.67-7.64v9.86H33.17v-15h2.49l3.21,9.42,3.24-9.42h2.46Z"/></g></g></g></svg>