<svg xmlns="http://www.w3.org/2000/svg" viewBox="0 0 94.4 94.4"><g id="Layer_2" data-name="Layer 2"><g id="Layer_1-2" data-name="Layer 1"><g id="ASM_Hollow" data-name="ASM Hollow"><polygon points="27.1 72.17 33.23 72.17 30.16 60.88 27.1 72.17"/><path d="M58,0V.51A10.82,10.82,0,0,1,47.17,11.33,10.81,10.81,0,0,1,36.35.51V0H0V94.4H94.4V0ZM35.83,81.74l-1.46-5.35H26L24.5,81.74H19.79l8.67-28.4h3.4l8.67,28.4ZM58.6,74.39a7.82,7.82,0,0,1-1,4.15,6.52,6.52,0,0,1-3,2.6,11.55,11.55,0,0,1-4.76.89,11.21,11.21,0,0,1-4.13-.7,7.34,7.34,0,0,1-3-2.08,8.17,8.17,0,0,1-1.66-3.39L45.3,74A5.35,5.35,0,0,0,47,76.78a4.62,4.62,0,0,0,2.94.93A4.86,4.86,0,0,0,53,76.86a3,3,0,0,0,1.1-2.45V73.16a2.86,2.86,0,0,0-.58-1.83A3.77,3.77,0,0,0,52,70.21c-.64-.26-1.48-.54-2.52-.85l-.07,0-.07,0-.23-.06a22.12,22.12,0,0,1-3.82-1.37A6.46,6.46,0,0,1,42.8,65.6a7.31,7.31,0,0,1-1-4.14v-.78a8,8,0,0,1,1-4.14,6.49,6.49,0,0,1,2.94-2.6,10.88,10.88,0,0,1,4.64-.89,9.45,9.45,0,0,1,3.64.66,6.62,6.62,0,0,1,2.65,2A9.1,9.1,0,0,1,58.23,59l-4,1.88a5.72,5.72,0,0,0-1.59-2.6,3.54,3.54,0,0,0-2.38-.88,4.78,4.78,0,0,0-3,.82,2.82,2.82,0,0,0-1,2.33v.9a2.88,2.88,0,0,0,.62,1.91,4.13,4.13,0,0,0,1.57,1.15,22.34,22.34,0,0,0,2.61.9l.2,0a.82.82,0,0,1,.19.09l.18,0a.4.4,0,0,1,.15,0A20.7,20.7,0,0,1,55.29,67a6.34,6.34,0,0,1,2.34,2.22,7.06,7.06,0,0,1,1,3.93Zm25.55,7.35H80V62.64l-5.08,14.9H71.84l-5-14.42V81.74H62.62V53.34h4.71l6.06,17.77L79.5,53.34h4.65Z"/></g></g></g></svg>