<svg xmlns="http://www.w3.org/2000/svg" viewBox="0 0 45.66 50"><defs><style>.cls-1{fill:#010101;}</style></defs><g id="Layer_2" data-name="Layer 2"><g id="Layer_1-2" data-name="Layer 1"><path class="cls-1" d="M43.38,10.87,25.08.58a4.67,4.67,0,0,0-4.5,0L2.27,10.87A4.43,4.43,0,0,0,0,14.71V35.29a4.43,4.43,0,0,0,2.27,3.84L20.58,49.41a4.58,4.58,0,0,0,2.25.59,4.64,4.64,0,0,0,2.25-.59l18.3-10.28a4.44,4.44,0,0,0,2.28-3.84V14.71A4.44,4.44,0,0,0,43.38,10.87ZM22.83,38A13,13,0,1,1,33.2,17.11l-4.76,2.75a7.62,7.62,0,1,0,0,10.27l4.76,2.76A13,13,0,0,1,22.83,38Zm13-11.95H33.7v2.17H31.52V26.09H29.35V23.91h2.17V21.74H33.7v2.17h2.17Zm7.61,0H41.31v2.17H39.13V26.09H37V23.91h2.17V21.74h2.18v2.17h2.17Z"/></g></g></svg>