<svg xmlns="http://www.w3.org/2000/svg" viewBox="0 0 50 50"><defs><style>.cls-1{fill:#010101;}</style></defs><g id="Layer_2" data-name="Layer 2"><g id="Layer_1-2" data-name="Layer 1"><path class="cls-1" d="M8.55,8.55,24.34.66A6.48,6.48,0,0,1,27.43,0a7.86,7.86,0,0,1,3.49,1.65L50,20.73V41.12H41.12V50H20.39L1.64,31.25A5.82,5.82,0,0,1,0,27.3,6.73,6.73,0,0,1,.66,25ZM10,10V34.52a3.92,3.92,0,0,0,1,3.15L21.26,47.92H39V39ZM35.08,8.56q-2.8-2.8-5.71-5.51a3,3,0,0,0-2.23-1,7.61,7.61,0,0,0-1.81.4L13.21,8.55Z"/></g></g></svg>