<svg xmlns="http://www.w3.org/2000/svg" viewBox="0 0 44.06 50"><defs><style>.cls-1{fill:#010101;}</style></defs><g id="Layer_2" data-name="Layer 2"><g id="Layer_1-2" data-name="Layer 1"><path class="cls-1" d="M.76,0A.75.75,0,0,0,0,.83L3.88,44.29a1.27,1.27,0,0,0,.88,1.05L21.2,49.91a3.65,3.65,0,0,0,1.61,0L39.3,45.34a1.32,1.32,0,0,0,.88-1.06L44.06.83A.75.75,0,0,0,43.3,0ZM35.81,10c0,.4-.1,1.11-.14,1.57l-.11,1.14c0,.46-.1,1.11-.13,1.46s-.06.62-.06.62H15a.75.75,0,0,0-.76.83l.35,4a.93.93,0,0,0,.91.83H34.13a.68.68,0,0,1,.68.75c0,.41-.11,1.11-.15,1.57L33.51,35.65c0,.45-.09,1-.11,1.3s-.41.56-.85.69l-9.71,2.69c-.45.12-.82.22-.82.23l-.82-.23-9.72-2.69a1.3,1.3,0,0,1-.88-1.06l-.63-7a.76.76,0,0,1,.76-.84h3.88a.94.94,0,0,1,.91.84l.25,2.75a1.3,1.3,0,0,0,.88,1l4.55,1.22.81.22.81-.22,4.56-1.23a1.29,1.29,0,0,0,.88-1.05l.49-5.51A.75.75,0,0,0,28,26H10.48a.94.94,0,0,1-.91-.83L8.36,11.54c0-.46-.1-1.17-.14-1.57A.72.72,0,0,1,9,9.22H35A.72.72,0,0,1,35.81,10Z"/></g></g></svg>