<svg xmlns="http://www.w3.org/2000/svg" viewBox="0 0 50 50"><defs><style>.cls-1{fill:#010101;}</style></defs><g id="Layer_2" data-name="Layer 2"><g id="Layer_1-2" data-name="Layer 1"><path class="cls-1" d="M0,0H50V50H0ZM45.91,38.08c-.37-2.29-1.86-4.2-6.26-6-1.53-.72-3.24-1.22-3.75-2.38a2.44,2.44,0,0,1-.09-1.46c.31-1.35,1.9-1.75,3.15-1.38a3.37,3.37,0,0,1,2,1.87c2.15-1.4,2.15-1.4,3.65-2.34a8.06,8.06,0,0,0-1.22-1.62c-1.31-1.47-3.06-2.22-5.9-2.15l-1.47.18A6.66,6.66,0,0,0,32.5,24.9a6.55,6.55,0,0,0,1.18,9.32c2.84,2.13,7,2.59,7.54,4.59.5,2.45-1.82,3.23-4.1,2.94A5.5,5.5,0,0,1,33.46,39l-3.81,2.19a8.35,8.35,0,0,0,1.69,2.31C35,47.12,44,46.94,45.65,41.38a7.13,7.13,0,0,0,.16-3.44ZM27.19,23H22.51c0,4,0,8.05,0,12.09,0,2.57.13,4.93-.28,5.65-.69,1.44-2.46,1.26-3.26,1a4,4,0,0,1-1.73-1.79,2.09,2.09,0,0,0-.27-.4l-3.8,2.34A7.4,7.4,0,0,0,15.9,45a9.14,9.14,0,0,0,6.68.84A5.85,5.85,0,0,0,26.35,43c1.07-1.94.84-4.32.83-7,0-4.28,0-8.56,0-12.87Z"/></g></g></svg>