<svg xmlns="http://www.w3.org/2000/svg" viewBox="0 0 50 50"><defs><style>.cls-1{fill:#010101;}</style></defs><g id="Layer_2" data-name="Layer 2"><g id="Layer_1-2" data-name="Layer 1"><g id="Python"><path class="cls-1" d="M24.7,0a35.54,35.54,0,0,0-6,.52l.21,0c-5.11.89-6,2.76-6,6.2v4.55H25v1.51H8.24a7.51,7.51,0,0,0-7.38,6v.05A21.48,21.48,0,0,0,0,24.86a22,22,0,0,0,.89,6.22l0-.16c.86,3.53,2.9,6,6.4,6H11.4V31.52a7.62,7.62,0,0,1,7.53-7.41H31a6,6,0,0,0,6-6V18h0V6.69a6.71,6.71,0,0,0-6-6.2h0A36.82,36.82,0,0,0,24.92,0H24.7ZM18.18,3.66h0a2.28,2.28,0,1,1-2.29,2.28v0a2.27,2.27,0,0,1,2.26-2.26Z"/><path class="cls-1" d="M38.52,12.75v5.3A7.7,7.7,0,0,1,31,25.61h-12a6.11,6.11,0,0,0-6,6.06V43c0,3.23,2.84,5.13,6,6.06A19.84,19.84,0,0,0,25,50a20.31,20.31,0,0,0,6.17-1l-.15,0c3-.87,6-2.62,6-6.06V38.48H25V37H43c3.51,0,4.81-2.41,6-6A19.79,19.79,0,0,0,50,24.86a20.23,20.23,0,0,0-1-6.21l0,.15c-.86-3.45-2.53-6.05-6-6.05ZM31.74,41.51h0a2.28,2.28,0,1,1-2.3,2.28h0v0A2.26,2.26,0,0,1,31.74,41.51Z"/></g></g></g></svg>