<svg xmlns="http://www.w3.org/2000/svg" viewBox="0 0 350.45 350.47"><g id="Layer_2" data-name="Layer 2"><g id="Layer_1-2" data-name="Layer 1"><g id="Email"><path d="M0,292.3v-234a6.43,6.43,0,0,0,.62-1.56C4.45,25,32.69-.17,66.72,0,139,.37,211.35.1,283.66.16a72.48,72.48,0,0,1,13.26,1c31.5,6,53.47,32.51,53.49,64.64q.07,109.31,0,218.62c0,31.05-19.79,56.41-49.9,64.14-2.74.7-5.51,1.25-8.26,1.87H58.18a8.55,8.55,0,0,0-1.55-.63c-28.83-4.89-47-21.6-54.87-49.63C1,297.62.58,294.94,0,292.3ZM223.56,219c.82,1.36,1.4,2.32,2,3.3a37.82,37.82,0,0,0,41,17.13c16.07-4,27.95-17.66,28.56-33.86.45-12.07.26-24.17-.07-36.25a110.91,110.91,0,0,0-14.7-52C265.14,90.37,243,71.6,213.66,61.61A116.55,116.55,0,0,0,138.5,61c-29.15,9.45-51.65,27.59-67.08,54.09-15.82,27.17-20.05,56.37-13.19,87,6.09,27.19,20.38,49.53,42.08,66.94,22.72,18.24,48.93,26.52,78,26.43,34.56-.11,69.13,0,103.69,0a34.87,34.87,0,0,0,5.11-.28,9.64,9.64,0,0,0,8.05-8.17c1-6.93-3.56-11.85-11.06-11.85-35.47,0-70.95,0-106.42,0a104.07,104.07,0,0,1-33.93-5.24c-24.07-8.29-42.68-23.35-55.16-45.48-14.39-25.53-17-52.56-7.87-80.42C88.62,119.75,104,101.31,126,88.69s45.57-16,70.26-10.79c21.76,4.62,40,15.62,54.49,32.46a97.29,97.29,0,0,1,22.38,46.51c2.86,15.38,2.11,30.92,1.71,46.39-.31,12.11-11.86,19.59-23,15.74-7.25-2.52-11.45-9.12-11.58-18-.17-11.62.49-23.34-.85-34.83-4.23-36.4-40.28-62.07-76.24-55-37.55,7.44-60.48,43.81-51,80.84S162.8,250,198.35,236.16A67.76,67.76,0,0,0,223.56,219Z"/><path d="M220,175.18A44.73,44.73,0,1,1,175,130.56,44.75,44.75,0,0,1,220,175.18Z"/></g></g></g></svg>