<svg xmlns="http://www.w3.org/2000/svg" viewBox="0 0 350.24 350.15"><g id="Layer_2" data-name="Layer 2"><g id="Layer_1-2" data-name="Layer 1"><g id="Github"><path d="M124.49,350.15H58.14a6.54,6.54,0,0,0-1.54-.62c-26.73-4.26-44.16-19.72-53.49-44.71C1.58,300.73,1,296.29,0,292V58.13c.37-1.75.76-3.5,1.12-5.26C7.6,21.63,34,.05,66,0Q175.09,0,284.15.06a67.87,67.87,0,0,1,12.9,1.05,65.28,65.28,0,0,1,53.13,64.26q.12,109.73,0,219.46a65.13,65.13,0,0,1-44.31,61.85c-4.46,1.54-9.19,2.33-13.79,3.47h-65a9,9,0,0,0-1.46-.72c-4.82-1.38-6.34-3.15-6.78-8.12-.16-1.81-.26-3.63-.26-5.45q0-23.92,0-47.86c0-13-1.27-25.53-11.68-35.6,1.75-.3,3-.53,4.16-.69,11.65-1.53,23-3.92,33.8-9,15.89-7.42,28.1-18.35,34.55-35a111.89,111.89,0,0,0,6.8-29.8c2-21.26-1.53-40.81-16.08-57.39a3.91,3.91,0,0,1-.7-3.22c4.19-12.19,3.78-24.35.25-36.59-2.68-9.27-4.08-10.27-13.63-7.85C243.58,76,232.38,82,221.52,88.77a8.13,8.13,0,0,1-5.62.93,164.91,164.91,0,0,0-81.42.12c-2.36.6-4,.05-6-1-8.53-4.49-17-9.1-25.84-13C98.1,73.82,93,73,88.13,72.17c-1.71-.28-4.9.66-5.37,1.85-5.4,13.68-7.14,27.7-2.24,42a4.76,4.76,0,0,1-1,5.43A60.29,60.29,0,0,0,65.64,148.1C61.57,166,63.26,183.63,68.46,201c4.89,16.32,14.14,29.42,29.28,37.92a90.81,90.81,0,0,0,28.94,10.75c5.32.94,10.64,1.83,16.44,2.83a37.87,37.87,0,0,0-10.73,21.69,3.46,3.46,0,0,1-1.77,2.18,45,45,0,0,1-26,3.56c-10.08-1.69-17.12-8.17-22.21-16.71-4.32-7.24-9.9-13-17.46-16.81-5.09-2.54-10.4-4-16.13-2.38-2.35.66-3.07,2.13-1.43,4,1.93,2.2,4.14,4.15,6.27,6.16,3.37,3.17,7.44,5.84,10,9.55,3.77,5.47,6.33,11.77,9.71,17.53a51.73,51.73,0,0,0,7.44,10.46c7.66,7.64,17.72,9.45,28,9.8,7.45.26,14.92-.34,22.7-.56,0,.79.13,2,.15,3.23.1,10.94,0,21.88.33,32.81C132.13,343.06,130.23,347.61,124.49,350.15Z"/></g></g></g></svg>