<svg xmlns="http://www.w3.org/2000/svg" viewBox="0 0 350.15 350.24"><g id="Layer_2" data-name="Layer 2"><g id="Layer_1-2" data-name="Layer 1"><g id="LinkedIn"><path d="M350.15,58.17V292.1a6.71,6.71,0,0,0-.62,1.54c-4.26,26.74-19.72,44.17-44.71,53.5-4.09,1.52-8.53,2.09-12.8,3.1H58.13l-5.26-1.12C21.64,342.65.05,316.24,0,284.23Q0,175.17.05,66.1A71.47,71.47,0,0,1,1,53.52,65.44,65.44,0,0,1,65,.08Q175.1-.08,285.17.07a65.14,65.14,0,0,1,61.51,44.3C348.21,48.84,349,53.56,350.15,58.17ZM188.17,293v-4.28q0-37.28,0-74.55c0-4.9,0-9.81.42-14.68a28.38,28.38,0,0,1,27.53-26.53c12.35-.55,21.08,5,24.47,16.89a74.75,74.75,0,0,1,2.73,19.46c.29,26.55.12,53.12.12,79.68v3.93h52.68v-4.05c0-27.13.17-54.26-.09-81.38A189.92,189.92,0,0,0,294,180.58c-1.87-12.26-6.88-23.31-15.69-32.33-12.07-12.36-27.14-17.09-44-16.8-16.31.29-30.15,6.25-40.76,18.94-1.64,2-3.13,4.05-4.69,6.07l-.68-.19v-21H136.05V293Zm-81.71,0V135.37H54.18V293ZM51,86.12c-.11,8.37,2.94,15.36,9.41,20.65,9.55,7.8,20.48,8.32,31.59,4.7,9.41-3.07,15.54-9.9,17.36-19.74,1.93-10.48-.94-19.64-9.42-26.52-7.18-5.83-15.57-6.79-24.47-5.85C61.42,60.86,51.09,72,51,86.12Z"/></g></g></g></svg>